<?xml version="1.0" standalone="no"?>
<!DOCTYPE svg PUBLIC "-//W3C//DTD SVG 20010904//EN"
 "http://www.w3.org/TR/2001/REC-SVG-20010904/DTD/svg10.dtd">
<svg version="1.0" xmlns="http://www.w3.org/2000/svg"
 width="160.000000pt" height="160.000000pt" viewBox="0 0 160.000000 160.000000"
 preserveAspectRatio="xMidYMid meet">

<g transform="translate(0.000000,160.000000) scale(0.100000,-0.100000)"
fill="#000000" stroke="none">
<path d="M828 1388 c-28 -25 -48 -88 -28 -88 6 0 16 14 21 30 16 43 35 37 48
-15 6 -25 15 -45 19 -45 8 0 5 101 -3 128 -6 18 -29 15 -57 -10z"/>
<path d="M666 1383 c-3 -4 -6 -22 -6 -40 0 -25 -8 -43 -29 -64 -41 -41 -57
-37 -70 16 -6 25 -16 45 -21 45 -12 0 -50 -73 -50 -95 0 -10 -10 -15 -27 -16
-83 -2 -96 -5 -107 -21 -9 -15 -5 -23 20 -46 18 -16 35 -40 39 -53 12 -39 25
-51 41 -38 18 15 18 69 -1 95 -17 25 -11 34 22 34 18 0 27 9 39 40 16 39 34
53 34 27 0 -23 35 -48 56 -41 39 14 84 56 91 85 l8 31 28 -22 c33 -26 43 -23
22 7 -17 24 -81 64 -89 56z"/>
<path d="M957 1309 c-11 -20 -13 -29 -5 -26 8 2 17 -10 23 -27 8 -24 16 -31
38 -33 24 -2 27 1 21 15 -4 9 -14 36 -22 60 -17 50 -31 53 -55 11z"/>
<path d="M1184 1310 c-29 -12 -79 -59 -70 -67 3 -4 12 -1 18 5 21 21 28 13 28
-26 0 -41 20 -67 55 -74 13 -2 21 -12 23 -31 2 -15 9 -27 18 -27 8 0 14 -6 14
-14 0 -18 48 -113 61 -121 5 -4 7 -15 4 -25 -9 -29 11 -32 29 -5 20 31 20 32
-4 38 -19 5 -20 10 -14 56 6 44 4 51 -11 51 -13 0 -16 6 -12 26 3 18 1 24 -9
20 -17 -6 -30 11 -41 54 -8 30 -13 35 -36 32 -22 -3 -27 1 -27 18 0 11 7 34
15 51 23 44 8 59 -41 39z"/>
<path d="M305 1030 c-6 -10 41 -80 55 -80 16 0 18 14 6 39 -7 14 -11 32 -9 39
6 15 -43 17 -52 2z"/>
<path d="M268 925 c-26 -25 -48 -89 -40 -113 2 -6 15 -12 29 -12 24 0 24 -1
11 -22 -8 -13 -18 -48 -22 -78 -4 -30 -12 -70 -18 -87 -16 -44 -2 -57 36 -37
29 14 45 8 46 -18 0 -5 7 -8 16 -8 13 0 14 -8 8 -47 -7 -53 -7 -50 -5 -76 1
-17 4 -16 32 7 44 37 52 34 45 -19 -9 -56 7 -59 23 -4 15 49 1 73 -37 66 -20
-4 -23 -2 -17 17 9 29 7 69 -4 76 -5 3 -13 18 -16 33 -10 40 -40 53 -62 27
-38 -45 -40 -3 -2 51 23 33 28 82 10 103 -12 14 -10 16 13 16 14 0 26 6 26 13
-1 16 -35 57 -49 57 -16 0 -13 26 4 40 16 13 20 40 6 40 -4 0 -20 -11 -33 -25z"/>
<path d="M1266 898 c-3 -13 -8 -44 -11 -70 -3 -27 -11 -48 -16 -48 -19 0 -5
-55 14 -58 15 -3 18 0 13 16 -5 16 -2 21 16 24 19 2 24 10 26 45 6 75 -30 152
-42 91z"/>
<path d="M1105 752 c-3 -3 -5 -17 -5 -31 l-1 -26 -21 25 c-16 20 -22 22 -26
10 -8 -21 -62 -70 -78 -70 -8 0 -14 -4 -14 -10 0 -5 -8 -10 -19 -10 -18 0 -51
-65 -51 -103 0 -10 -5 -14 -14 -11 -20 8 -27 -84 -8 -103 18 -17 57 -17 72 2
7 8 19 15 26 15 8 0 14 5 14 10 0 6 -7 10 -16 10 -12 0 -14 9 -12 43 3 43 11
48 51 32 12 -5 17 -2 17 9 0 9 8 16 19 16 20 0 31 18 31 51 0 16 4 17 25 9 20
-8 27 -6 31 5 11 28 21 15 21 -27 1 -24 -4 -49 -11 -57 -6 -8 -12 -26 -13 -40
-3 -47 -16 -85 -45 -133 -27 -44 -38 -53 -61 -49 -5 1 -6 -3 -3 -8 3 -5 -3
-11 -14 -14 -12 -3 -24 1 -30 11 -7 13 -9 13 -10 3 0 -11 -4 -10 -20 4 -17 16
-21 16 -35 2 -8 -9 -15 -28 -15 -44 0 -16 -5 -34 -12 -41 -9 -9 -8 -12 4 -12
8 0 21 7 28 14 6 8 28 20 48 27 55 17 118 57 136 84 21 32 75 216 82 282 5 35
11 53 20 53 21 0 17 24 -8 47 -23 20 -72 35 -83 25z"/>
<path d="M441 382 c-16 -30 -15 -31 32 -34 34 -2 42 -7 42 -23 0 -12 8 -21 20
-23 11 -2 25 -9 30 -16 16 -20 92 -56 117 -55 21 0 20 2 -8 16 -17 8 -38 30
-48 48 -17 31 -52 55 -80 55 -8 0 -20 9 -27 20 -21 30 -65 36 -78 12z"/>
<path d="M847 393 c-11 -10 -8 -63 3 -63 14 0 32 39 26 56 -6 15 -18 18 -29 7z"/>
<path d="M790 358 c0 -22 33 -55 38 -38 3 7 -5 22 -17 33 -18 18 -21 19 -21 5z"/>
<path d="M742 315 c4 -33 22 -33 26 0 2 18 -1 25 -13 25 -12 0 -15 -7 -13 -25z"/>
<path d="M680 297 c0 -19 27 -53 36 -45 9 10 -12 58 -26 58 -5 0 -10 -6 -10
-13z"/>
</g>
</svg>
