<?xml version="1.0" standalone="no"?>
<!DOCTYPE svg PUBLIC "-//W3C//DTD SVG 20010904//EN"
 "http://www.w3.org/TR/2001/REC-SVG-20010904/DTD/svg10.dtd">
<svg version="1.0" xmlns="http://www.w3.org/2000/svg"
 width="80.000000pt" height="76.000000pt" viewBox="0 0 80.000000 76.000000"
 preserveAspectRatio="xMidYMid meet">

<g transform="translate(0.000000,76.000000) scale(0.100000,-0.100000)"
fill="#000000" stroke="none">
<path d="M365 637 c-8 -12 -15 -31 -15 -43 0 -17 -8 -23 -35 -28 -48 -9 -68
-32 -62 -71 4 -26 1 -33 -24 -47 -35 -20 -52 -61 -44 -100 5 -23 1 -33 -24
-53 -16 -14 -35 -41 -41 -60 -10 -29 -8 -41 9 -80 16 -37 29 -50 66 -66 45
-20 48 -20 129 -4 62 12 93 14 122 7 85 -22 147 -23 183 -5 73 38 95 111 53
170 -12 17 -19 38 -16 46 7 20 -31 106 -50 113 -10 4 -16 19 -16 41 0 36 -36
83 -64 83 -8 0 -16 11 -18 26 -2 15 -10 30 -18 34 -8 5 -39 19 -67 33 l-53 26
-15 -22z m1 -155 c17 -11 34 -48 34 -75 0 -34 -36 -77 -65 -77 -29 0 -65 43
-65 77 0 47 28 83 65 83 11 0 25 -4 31 -8z m177 -9 c47 -53 17 -143 -48 -143
-46 0 -72 92 -39 138 19 27 64 29 87 5z m-34 -260 c28 -18 19 -29 -36 -41 -43
-10 -105 -3 -136 14 -17 10 -17 12 -3 24 38 31 128 32 175 3z"/>
<path d="M314 425 c-11 -46 35 -75 56 -35 8 14 8 26 0 40 -15 29 -48 26 -56
-5z"/>
<path d="M464 425 c-11 -46 35 -75 56 -35 8 14 8 26 0 40 -15 29 -48 26 -56
-5z"/>
</g>
</svg>
